<mxfile host="app.diagrams.net" modified="2024-04-12T03:43:30.323Z" agent="Mozilla/5.0 (Windows NT 10.0; Win64; x64) AppleWebKit/537.36 (KHTML, like Gecko) Chrome/121.0.0.0 Safari/537.36 OPR/107.0.0.0" etag="7i-XKDBJLrGe8cls8R7R" version="24.2.3" type="github">
  <diagram name="Page-1" id="rfV1JUcK2DbvvokDICaq">
    <mxGraphModel dx="1249" dy="581" grid="1" gridSize="10" guides="1" tooltips="1" connect="1" arrows="1" fold="1" page="1" pageScale="1" pageWidth="850" pageHeight="1100" math="0" shadow="0">
      <root>
        <mxCell id="0" />
        <mxCell id="1" parent="0" />
        <mxCell id="R1UovpLdG1uNpmU37-ZV-1" value="FigurasGeometricas" style="swimlane;fontStyle=1;align=center;verticalAlign=top;childLayout=stackLayout;horizontal=1;startSize=26;horizontalStack=0;resizeParent=1;resizeParentMax=0;resizeLast=0;collapsible=1;marginBottom=0;whiteSpace=wrap;html=1;" parent="1" vertex="1">
          <mxGeometry x="190" y="50" width="160" height="140" as="geometry" />
        </mxCell>
        <mxCell id="R1UovpLdG1uNpmU37-ZV-2" value="+ numLados: int&lt;div&gt;&lt;br&gt;&lt;/div&gt;&lt;div&gt;+ area: float&lt;/div&gt;&lt;div&gt;&lt;br&gt;&lt;/div&gt;&lt;div&gt;+ perimetro: float&lt;/div&gt;&lt;div&gt;&lt;br&gt;&lt;/div&gt;&lt;div&gt;+ dimension: int&lt;/div&gt;" style="text;strokeColor=none;fillColor=none;align=left;verticalAlign=top;spacingLeft=4;spacingRight=4;overflow=hidden;rotatable=0;points=[[0,0.5],[1,0.5]];portConstraint=eastwest;whiteSpace=wrap;html=1;" parent="R1UovpLdG1uNpmU37-ZV-1" vertex="1">
          <mxGeometry y="26" width="160" height="114" as="geometry" />
        </mxCell>
        <mxCell id="R1UovpLdG1uNpmU37-ZV-3" value="" style="line;strokeWidth=1;fillColor=none;align=left;verticalAlign=middle;spacingTop=-1;spacingLeft=3;spacingRight=3;rotatable=0;labelPosition=right;points=[];portConstraint=eastwest;strokeColor=inherit;" parent="R1UovpLdG1uNpmU37-ZV-1" vertex="1">
          <mxGeometry y="140" width="160" as="geometry" />
        </mxCell>
        <mxCell id="R1UovpLdG1uNpmU37-ZV-10" value="" style="endArrow=block;endSize=16;endFill=0;html=1;rounded=0;entryX=0.755;entryY=0;entryDx=0;entryDy=0;entryPerimeter=0;" parent="1" edge="1" target="R1UovpLdG1uNpmU37-ZV-3">
          <mxGeometry x="0.0001" y="-30" width="160" relative="1" as="geometry">
            <mxPoint x="310" y="290" as="sourcePoint" />
            <mxPoint x="310" y="223.99599999999998" as="targetPoint" />
            <mxPoint as="offset" />
          </mxGeometry>
        </mxCell>
        <mxCell id="R1UovpLdG1uNpmU37-ZV-11" value="" style="endArrow=block;endSize=16;endFill=0;html=1;rounded=0;entryX=0.245;entryY=0;entryDx=0;entryDy=0;entryPerimeter=0;" parent="1" edge="1" target="R1UovpLdG1uNpmU37-ZV-3">
          <mxGeometry x="0.0001" y="-30" width="160" relative="1" as="geometry">
            <mxPoint x="230" y="290" as="sourcePoint" />
            <mxPoint x="230" y="223.99599999999998" as="targetPoint" />
            <mxPoint as="offset" />
          </mxGeometry>
        </mxCell>
        <mxCell id="R1UovpLdG1uNpmU37-ZV-12" value="Circulos" style="swimlane;fontStyle=1;align=center;verticalAlign=top;childLayout=stackLayout;horizontal=1;startSize=26;horizontalStack=0;resizeParent=1;resizeParentMax=0;resizeLast=0;collapsible=1;marginBottom=0;whiteSpace=wrap;html=1;" parent="1" vertex="1">
          <mxGeometry x="110" y="290" width="160" height="68" as="geometry" />
        </mxCell>
        <mxCell id="R1UovpLdG1uNpmU37-ZV-13" value="- radio: float&lt;div&gt;- circunferencia: float&lt;/div&gt;" style="text;strokeColor=none;fillColor=none;align=left;verticalAlign=top;spacingLeft=4;spacingRight=4;overflow=hidden;rotatable=0;points=[[0,0.5],[1,0.5]];portConstraint=eastwest;whiteSpace=wrap;html=1;" parent="R1UovpLdG1uNpmU37-ZV-12" vertex="1">
          <mxGeometry y="26" width="160" height="34" as="geometry" />
        </mxCell>
        <mxCell id="R1UovpLdG1uNpmU37-ZV-14" value="" style="line;strokeWidth=1;fillColor=none;align=left;verticalAlign=middle;spacingTop=-1;spacingLeft=3;spacingRight=3;rotatable=0;labelPosition=right;points=[];portConstraint=eastwest;strokeColor=inherit;" parent="R1UovpLdG1uNpmU37-ZV-12" vertex="1">
          <mxGeometry y="60" width="160" height="8" as="geometry" />
        </mxCell>
        <mxCell id="R1UovpLdG1uNpmU37-ZV-16" value="Poligonos" style="swimlane;fontStyle=1;align=center;verticalAlign=top;childLayout=stackLayout;horizontal=1;startSize=26;horizontalStack=0;resizeParent=1;resizeParentMax=0;resizeLast=0;collapsible=1;marginBottom=0;whiteSpace=wrap;html=1;" parent="1" vertex="1">
          <mxGeometry x="290" y="290" width="160" height="68" as="geometry" />
        </mxCell>
        <mxCell id="R1UovpLdG1uNpmU37-ZV-17" value="+ tipoPoligono: String&lt;div&gt;- vertices: int&lt;/div&gt;" style="text;strokeColor=none;fillColor=none;align=left;verticalAlign=top;spacingLeft=4;spacingRight=4;overflow=hidden;rotatable=0;points=[[0,0.5],[1,0.5]];portConstraint=eastwest;whiteSpace=wrap;html=1;" parent="R1UovpLdG1uNpmU37-ZV-16" vertex="1">
          <mxGeometry y="26" width="160" height="34" as="geometry" />
        </mxCell>
        <mxCell id="R1UovpLdG1uNpmU37-ZV-18" value="" style="line;strokeWidth=1;fillColor=none;align=left;verticalAlign=middle;spacingTop=-1;spacingLeft=3;spacingRight=3;rotatable=0;labelPosition=right;points=[];portConstraint=eastwest;strokeColor=inherit;" parent="R1UovpLdG1uNpmU37-ZV-16" vertex="1">
          <mxGeometry y="60" width="160" height="8" as="geometry" />
        </mxCell>
      </root>
    </mxGraphModel>
  </diagram>
</mxfile>
